<?xml version="1.0" encoding="utf-8"?>
<!-- Generator: Adobe Illustrator 21.0.0, SVG Export Plug-In . SVG Version: 6.00 Build 0)  -->
<svg version="1.1" id="Layer_1" xmlns="http://www.w3.org/2000/svg" xmlns:xlink="http://www.w3.org/1999/xlink" x="0px" y="0px"
	 viewBox="0 0 512 512" style="enable-background:new 0 0 512 512;" xml:space="preserve">
<style type="text/css">
	.st0{fill:#FFD38D;}
	.st1{fill:#6D4135;}
	.st2{opacity:0.1;}
</style>
<title>x-flat</title>
<g>
	<g>
		<path class="st0" d="M437,75C388.7,26.6,324.4,0,256,0S123.3,26.6,75,75C26.6,123.3,0,187.6,0,256s26.6,132.7,75,181
			c48.3,48.4,112.6,75,181,75s132.7-26.6,181-75c48.4-48.3,75-112.6,75-181S485.4,123.3,437,75z"/>
	</g>
	<path class="st1" d="M286.2,256l48.9-48.9c8.3-8.3,8.3-21.8,0-30.2c-8.3-8.3-21.8-8.3-30.2,0L256,225.8l-48.9-48.9
		c-8.3-8.3-21.8-8.3-30.2,0c-8.3,8.3-8.3,21.8,0,30.2l48.9,48.9l-48.9,48.9c-8.3,8.3-8.3,21.8,0,30.2c4.2,4.2,9.6,6.3,15.1,6.3
		s10.9-2.1,15.1-6.3l48.9-48.9l48.9,48.9c4.2,4.2,9.6,6.3,15.1,6.3s10.9-2.1,15.1-6.3c8.3-8.3,8.3-21.8,0-30.2L286.2,256z"/>
	<g class="st2">
		<path d="M512,256c0,141.1-114.9,256-256,256V0C397.1,0,512,114.9,512,256z"/>
	</g>
</g>
</svg>
