<svg id="Layer_1" data-name="Layer 1" xmlns="http://www.w3.org/2000/svg" viewBox="0 0 512 512"><defs><style>.cls-1{fill:#ffd38d;}.cls-2{fill:#6d4135;}</style></defs><title>bag-filled</title><polygon class="cls-1" points="419.84 143.36 92.16 143.36 51.2 491.52 460.8 491.52 419.84 143.36"/><path class="cls-2" d="M481.14,489.13,440.18,141a20.48,20.48,0,0,0-20.34-18.09H358.4V102.4a102.4,102.4,0,0,0-204.8,0v20.48H92.16A20.48,20.48,0,0,0,71.82,141l-41,348.16A20.48,20.48,0,0,0,51.2,512H460.8a20.48,20.48,0,0,0,20.34-22.87ZM194.56,102.4a61.44,61.44,0,0,1,122.88,0v20.48H194.56ZM74.23,471l36.14-307.2H153.6v61.44a20.48,20.48,0,0,0,41,0V163.84H317.44v61.44a20.48,20.48,0,0,0,41,0V163.84h43.23L437.77,471Z"/></svg>