<svg id="Layer_1" data-name="Layer 1" xmlns="http://www.w3.org/2000/svg" viewBox="0 0 512 512"><title>database-server-gear-flat</title><path d="M0,256C0,114.61,114.61,0,256,0S512,114.63,512,256,397.38,512,256,512,0,397.39,0,256Z" fill="#2b77c1"/><path d="M152.43,264.69h103.8a8.64,8.64,0,0,1,7.2-3.59,10,10,0,0,1,3.17.52l.3.1,6.44,3h10c.9-.51,1.81-1,2.76-1.48l1.38-13.36a8.37,8.37,0,0,1,8.57-8.22h26.07a8.37,8.37,0,0,1,4.05,1.13V218.35a11.62,11.62,0,0,0-11.59-11.59H152.43a11.62,11.62,0,0,0-11.59,11.59V253.1A11.62,11.62,0,0,0,152.43,264.69Z" fill="#fff"/><rect x="140.85" y="137.25" width="185.36" height="57.93" rx="11.59" ry="11.59" fill="#fff"/><path d="M242.44,334l-.09-.18c-1.67-3.34-.78-7.61,2.22-10.61l.3-.3,10.89-8c-.09-1.27-.1-2.58-.1-3.86,0-1,0-2.36.12-3.84l-10.06-7.44a7.7,7.7,0,0,1-3.65-4,9.35,9.35,0,0,1,.28-7.55l.09-.18,6.94-11.77H152.43a11.62,11.62,0,0,0-11.59,11.59v34.76a11.62,11.62,0,0,0,11.59,11.59h90.11Z" fill="#fff"/><path d="M356.33,317.4a26,26,0,0,0,.58-6.37,23.76,23.76,0,0,0-.58-6.37l13.32-9.85c1.16-1.16,1.74-2.9,1.16-4.05l-13.32-22.59c-.58-1.16-2.32-1.74-4.05-1.16l-15.06,7a47.35,47.35,0,0,0-11.59-7L325,250.21a3.1,3.1,0,0,0-2.9-2.9H296.08a2.74,2.74,0,0,0-2.9,2.9L291.45,267a47.35,47.35,0,0,0-11.59,7l-15.06-7c-1.74-.58-3.48,0-4.05,1.16l-13.32,22.59c-.58,1.16-.58,3.48,1.16,4.05l13.32,9.85a26,26,0,0,0-.58,6.37,23.76,23.76,0,0,0,.58,6.37l-13.32,9.85c-1.16,1.16-1.74,2.9-1.16,4.05l13.32,22.59c.58,1.16,2.32,1.74,4.05,1.16l15.06-7a47.35,47.35,0,0,0,11.59,7l1.74,16.8a3.1,3.1,0,0,0,2.9,2.9h26.07a2.74,2.74,0,0,0,2.9-2.9l1.74-16.8a47.35,47.35,0,0,0,11.59-7l15.06,7c1.74.58,3.48,0,4.05-1.16l13.32-22.59c.58-1.16.58-3.48-1.16-4.05Zm-47.5,23.75A30.12,30.12,0,1,1,338.95,311,29.92,29.92,0,0,1,308.83,341.15Z" fill="#fff"/><path d="M308.83,276.27A34.76,34.76,0,1,0,343.58,311,34.86,34.86,0,0,0,308.83,276.27Zm0,52.13A17.38,17.38,0,1,1,326.21,311,17.07,17.07,0,0,1,308.83,328.41Z" fill="#fff"/></svg>