<svg id="Layer_1" data-name="Layer 1" xmlns="http://www.w3.org/2000/svg" viewBox="0 0 512 512"><title>events-calendar</title><g id="events-calendar"><g id="label"><path d="M256,512C114.84,512,0,397.16,0,256S114.84,0,256,0,512,114.84,512,256,397.16,512,256,512Zm0-490.54C126.68,21.46,21.46,126.67,21.46,256S126.68,490.54,256,490.54,490.54,385.32,490.54,256,385.33,21.46,256,21.46Z" fill="#34495e"/></g><path id="events-calendar-2" data-name="events-calendar" d="M375.19,136.43v16.48a16.62,16.62,0,0,1-33.24,0V136.43H306.81v16.48a16.62,16.62,0,0,1-33.24,0V136.43H238.42v16.48a16.62,16.62,0,0,1-33.24,0V136.43H170.05v16.48a16.63,16.63,0,0,1-33.25,0V136.43h-28V389.36a13.84,13.84,0,0,0,13.79,13.8H389.36a13.84,13.84,0,0,0,13.8-13.8V136.43Zm.38,229.94a9.23,9.23,0,0,1-9.19,9.2H145.63a9.23,9.23,0,0,1-9.2-9.2V210H375.57ZM141.4,152.91V120.86a12,12,0,0,1,24.05,0v32.05a12,12,0,0,1-24.05,0Zm205.15,0V120.86a12,12,0,1,1,24,0v32.05a12,12,0,1,1-24,0Zm-136.76,0V120.86a12,12,0,1,1,24,0v32.05a12,12,0,1,1-24,0Zm68.39,0V120.86a12,12,0,1,1,24,0v32.05a12,12,0,1,1-24,0ZM154.91,259.32V242.18a4.58,4.58,0,0,1,4.58-4.57h17.17a4.59,4.59,0,0,1,4.58,4.57v17.14a4.61,4.61,0,0,1-4.58,4.6H159.49A4.6,4.6,0,0,1,154.91,259.32Zm44,0V242.18a4.58,4.58,0,0,1,4.58-4.57h17.15a4.57,4.57,0,0,1,4.58,4.57v17.14a4.59,4.59,0,0,1-4.58,4.6H203.54A4.6,4.6,0,0,1,199,259.32Zm-44,40V282.21a4.59,4.59,0,0,1,4.58-4.58h17.17a4.6,4.6,0,0,1,4.58,4.58v17.17a4.6,4.6,0,0,1-4.58,4.56H159.49A4.59,4.59,0,0,1,154.91,299.37Zm44,0V282.21a4.59,4.59,0,0,1,4.58-4.58h17.15a4.58,4.58,0,0,1,4.58,4.58v17.17a4.58,4.58,0,0,1-4.58,4.56H203.54A4.59,4.59,0,0,1,199,299.37Zm-44,40V322.25a4.58,4.58,0,0,1,4.58-4.58h17.17a4.59,4.59,0,0,1,4.58,4.58v17.16a4.59,4.59,0,0,1-4.58,4.57H159.49A4.59,4.59,0,0,1,154.91,339.41Zm44,0V322.25a4.58,4.58,0,0,1,4.58-4.58h17.15a4.57,4.57,0,0,1,4.58,4.58v17.16a4.58,4.58,0,0,1-4.58,4.57H203.54A4.59,4.59,0,0,1,199,339.41Zm43.74-80.08V242.18a4.58,4.58,0,0,1,4.58-4.57h17.15a4.58,4.58,0,0,1,4.58,4.57v17.14a4.6,4.6,0,0,1-4.58,4.6H247.27A4.6,4.6,0,0,1,242.69,259.32Zm44,0V242.18a4.57,4.57,0,0,1,4.57-4.57h17.17a4.57,4.57,0,0,1,4.56,4.57v17.14a4.59,4.59,0,0,1-4.56,4.6H291.29A4.59,4.59,0,0,1,286.73,259.32Zm44,0V242.18a4.58,4.58,0,0,1,4.58-4.57H352.5a4.58,4.58,0,0,1,4.58,4.57v17.14a4.6,4.6,0,0,1-4.58,4.6H335.34A4.6,4.6,0,0,1,330.76,259.32Zm-88.07,40V282.21a4.59,4.59,0,0,1,4.58-4.58h17.15a4.59,4.59,0,0,1,4.58,4.58v17.17a4.59,4.59,0,0,1-4.58,4.56H247.27A4.59,4.59,0,0,1,242.69,299.37Zm44,0V282.21a4.58,4.58,0,0,1,4.57-4.58h17.17a4.58,4.58,0,0,1,4.56,4.58v17.17a4.58,4.58,0,0,1-4.56,4.56H291.29A4.58,4.58,0,0,1,286.73,299.37Zm44,0V282.21a4.59,4.59,0,0,1,4.58-4.58H352.5a4.59,4.59,0,0,1,4.58,4.58v17.17a4.59,4.59,0,0,1-4.58,4.56H335.34A4.59,4.59,0,0,1,330.76,299.37Z" fill="#34495e"/></g></svg>