<svg id="Layer_1" data-name="Layer 1" xmlns="http://www.w3.org/2000/svg" viewBox="0 0 512 512"><title>house-home-glyph</title><polygon points="381.8 160.52 381.99 160.52 381.8 160.38 381.8 160.52" fill="#434040"/><path d="M505.11,192.56l-30.21-23.87-34.72-27.46V64.69h10.4V44.23H371.4V64.69h10.4V95L268.68,5.55l-.19-.12c-8.54-6.76-21.91-6.7-30.35.12L48,159.31,6.69,192.71c-8.69,7.05-9,18.69-.53,26s22.37,7.52,31.09.45L48,210.47,253.52,44.23,381.8,145.68l.19.12,92.92,73.49a25.13,25.13,0,0,0,31.1-.75C514.32,211.19,513.95,199.55,505.11,192.56Z" fill="#434040"/><polygon points="473.53 234.01 252.15 58.95 46.58 225.19 46.58 468.48 194.1 468.48 194.1 247.61 325.94 247.61 325.94 468.48 473.53 468.48 473.53 234.01" fill="#434040"/><rect x="21.09" y="475.45" width="469.79" height="36.15" fill="#434040"/></svg>