<svg id="Layer_1" data-name="Layer 1" xmlns="http://www.w3.org/2000/svg" viewBox="0 0 512 512"><title>social-media-icon-html5</title><path d="M502.52,0H256.83C115.24,0,0,112.52,0,254.14V499.85C0,505.75,5.21,512,11.12,512H256.83C398.42,512,512,395.73,512,254.14V8.42C512,2.52,508.43,0,502.52,0Z" fill="#ff651e"/><polygon points="174.56 124.39 188.24 124.39 188.24 138.9 203.2 138.9 203.2 95.56 188.24 95.56 188.24 109.87 174.56 109.87 174.56 95.56 159.6 95.56 159.6 138.9 174.56 138.9 174.56 124.39" fill="#fff" style="isolation:isolate"/><polygon points="222.88 138.9 237.84 138.9 237.84 109.94 251.01 109.94 251.01 95.56 209.71 95.56 209.71 109.94 222.88 109.94 222.88 138.9" fill="#fff" style="isolation:isolate"/><polygon points="272.2 117.43 282.5 132.84 282.76 132.84 293.04 117.43 293.04 138.9 307.96 138.9 307.96 95.56 292.35 95.56 282.76 110.81 273.17 95.56 257.56 95.56 257.56 138.9 272.2 138.9 272.2 117.43" fill="#fff" style="isolation:isolate"/><polygon points="351.39 124.58 330.35 124.58 330.35 95.56 315.39 95.56 315.39 138.9 351.39 138.9 351.39 124.58" fill="#fff" style="isolation:isolate"/><path d="M138,157.91l21.4,232.33,96.07,25.81,96.13-25.79,21.43-232.35Zm188.6,76H214l2.7,29.18H324l-8.06,87.51-60.35,16.18h0l-60.31-16.19L191,304.81h29.55l2.18,23.73,32.78,8.59h0l32.83-8.59,3.43-37h-102l-7.93-86.18H329.27Z" fill="#fff" style="isolation:isolate"/></svg>