<svg id="Layer_1" data-name="Layer 1" xmlns="http://www.w3.org/2000/svg" viewBox="0 0 512 512"><title>map-pointer-pin-flat</title><path d="M.37,256C.37,114.82,114.82.35,256,.35S511.64,114.83,511.63,256,397.18,511.65,256,511.65.35,397.18.37,256Z" fill="#2b77c1"/><path d="M351.09,169c-20.89-55.27-83.59-81.74-137-57.59-53.88,24.61-75.7,87.77-47.83,140.71,12.54,23.69,26.47,46.44,39.93,70.12,15.79,27.4,32,55.27,50.16,87.31a101.37,101.37,0,0,1,4.65-9.76c27.86-49.23,56.66-98,84-147.68,14.86-26,16.72-54.8,6-83.12Z" fill="#fff" fill-rule="evenodd"/><path d="M255.42,285.55h0a83.12,83.12,0,1,1,83.13-83.12,83,83,0,0,1-83.13,83.12Z" fill="#2b77c1" fill-rule="evenodd"/></svg>