<svg id="Layer_1" data-name="Layer 1" xmlns="http://www.w3.org/2000/svg" viewBox="0 0 512 512"><title>define-location-flat</title><path d="M.37,256C.37,114.82,114.82.35,256,.35S511.64,114.83,511.63,256,397.18,511.65,256,511.65.35,397.18.37,256Z" fill="#2b77c1"/><path d="M298.1,261.29V253.9c0-5.2,4.19-9.4,10.57-9.4h35.76c-1-7.39-3.19-13.77-5.21-20.15-4.19-11.42-11.58-21-20.06-29.38a78.82,78.82,0,0,0-29.46-19c-6.39-3.19-13.68-4.2-20.07-6.21v36.77c0,5.2-5.2,9.41-10.49,9.41h-7.39c-5.28,0-10.49-4.2-10.49-9.41V169.79c-6.38,2-13.77,3-20.06,6.21a79.85,79.85,0,0,0-29.55,19c-8.4,8.4-15.79,18-20,29.38a110.55,110.55,0,0,0-5.29,20.15h37.94a9.41,9.41,0,0,1,9.49,9.4v7.39c0,5.21-4.2,10.58-9.49,10.58H166.39a141,141,0,0,0,5.29,20c4.19,10.41,11.58,20,20,28.37a79.9,79.9,0,0,0,29.55,19,75.62,75.62,0,0,0,20.06,6.21v-40c0-5.21,5.21-9.4,10.49-9.4h7.39c5.29,0,10.49,4.19,10.49,9.4v40a76.63,76.63,0,0,0,20.07-6.21,78.87,78.87,0,0,0,29.46-19c8.48-8.4,15.87-18,20.06-28.37a151.58,151.58,0,0,0,5.21-20H308.68a10.63,10.63,0,0,1-10.57-10.58ZM269.64,148.63c9.49,1.18,20.07,3.19,28.46,7.39,14.77,5.37,26.36,13.77,36.93,23.17A115.06,115.06,0,0,1,359.21,215c4.2,9.4,7.39,19,8.48,29.55h12.67a9.46,9.46,0,0,1,9.49,9.4v7.39c0,5.21-4.28,10.58-9.49,10.58H367.69c-1.09,9.4-4.28,18.8-8.48,28.36-5.28,13.6-13.68,25.19-24.17,35.77s-22.16,17.8-36.93,24.18c-8.4,3.19-19,6.38-28.46,7.38V376c0,5.21-5.2,9.4-10.49,9.4h-7.39c-5.28,0-10.49-4.19-10.49-9.4v-8.4c-9.49-1-20.06-4.19-29.55-7.38-13.69-6.39-25.27-13.6-35.85-24.18a122.68,122.68,0,0,1-25.18-35.77c-3.27-9.56-6.39-19-7.48-28.36H132.73a10.63,10.63,0,0,1-10.58-10.58V253.9c0-5.2,4.2-9.4,10.58-9.4h10.49c1.09-10.58,4.2-20.15,7.48-29.55a137.72,137.72,0,0,1,25.18-35.76c10.58-9.4,22.16-17.8,35.85-23.17,9.49-4.2,20.06-6.21,29.55-7.39V137a10.47,10.47,0,0,1,10.49-10.41h7.39A10.47,10.47,0,0,1,269.64,137Z" fill="#fff" fill-rule="evenodd"/></svg>