<svg id="Layer_1" data-name="Layer 1" xmlns="http://www.w3.org/2000/svg" viewBox="0 0 512 512"><title>gear-settings-outline</title><path d="M384,477.7H128l-.55-.95L0,256,128,34.3H384l.55.95L512,256Zm-253.81-3.79H381.81L507.62,256,381.81,38.09H130.19L4.38,256Z" fill="#1e120d"/><path d="M256,320.86A64.86,64.86,0,1,1,320.86,256,64.94,64.94,0,0,1,256,320.86Zm0-125.62A60.76,60.76,0,1,0,316.76,256,60.83,60.83,0,0,0,256,195.24Z" fill="#1e120d"/><path d="M256,321.1A65.1,65.1,0,1,1,321.1,256,65.17,65.17,0,0,1,256,321.1Zm0-129.72A64.62,64.62,0,1,0,320.62,256,64.7,64.7,0,0,0,256,191.38ZM256,317a61,61,0,1,1,61-61A61.06,61.06,0,0,1,256,317Zm0-121.51A60.52,60.52,0,1,0,316.52,256,60.59,60.59,0,0,0,256,195.48Z" fill="#1e120d"/><path d="M273.39,375.05H238.61l-10-30.16-16.18-6.7-28.36,14.29-24.6-24.6,14.29-28.36-6.7-16.18-30.16-10V238.61l30.16-10,6.7-16.18-14.29-28.36,24.59-24.6,28.37,14.29,16.18-6.7,10-30.16h34.78l10,30.16,16.18,6.7,28.36-14.29,24.6,24.6-14.29,28.36,6.7,16.18,30.16,10v34.78l-30.16,10-6.7,16.18,14.29,28.36-24.6,24.6-28.36-14.29-16.18,6.7Zm-31.82-4.11h28.85L280,341.83l19.66-8.15,27.39,13.8,20.39-20.4-13.8-27.39L341.82,280l29.12-9.61V241.58L341.82,232l-8.15-19.66,13.8-27.39-20.4-20.39-27.39,13.8L280,170.18l-9.61-29.12H241.58L232,170.18l-19.65,8.15-27.39-13.8-20.4,20.4,13.8,27.39L170.18,232l-29.12,9.61v28.85L170.18,280l8.15,19.66-13.8,27.39,20.4,20.39,27.39-13.8L232,341.83Z" fill="#1e120d"/><path d="M273.56,375.29H238.44l-10-30.21-16-6.62-28.42,14.32-.12-.12-24.72-24.72.08-.15,14.24-28.27-6.62-16-30.21-10V238.44l30.21-10,6.62-16-14.32-28.42,24.84-24.84,28.42,14.32,16-6.62,10-30.21h35.12l10,30.21,16,6.62,28.42-14.32,24.84,24.84-14.32,28.42,6.62,16,30.22,10v35.12l-30.22,10-6.62,16,14.32,28.42-.12.12-24.72,24.72-.15-.08-28.27-14.24-16,6.62Zm-34.78-.47h34.44l9.93-30.1.1,0,16.28-6.74.1.05,28.21,14.21,24.35-24.36-14.26-28.3,0-.1,6.74-16.28,30.1-9.94V238.78l-30.1-9.94,0-.1-6.74-16.28,0-.1,14.21-28.21-24.36-24.35-28.3,14.26-.1,0-16.28-6.75-9.93-30.1H238.78l-9.93,30.1-.1,0-16.28,6.75-.1,0-28.21-14.21-24.35,24.36,14.26,28.3,0,.1-6.74,16.28-30.1,9.94v34.44l30.1,9.94,0,.1,6.74,16.28,0,.1-14.21,28.21,24.36,24.35,28.3-14.26.1,0,16.28,6.74Zm31.82-3.63H241.4L231.77,342l-19.45-8.06-27.44,13.83-.12-.12-20.52-20.52.08-.15,13.75-27.29L170,280.22l-29.18-9.63V241.4L170,231.78l8.06-19.46-13.83-27.44,20.64-20.64,27.45,13.83L231.77,170l9.63-29.18H270.6L280.22,170l19.46,8.06,27.45-13.83,20.64,20.64-13.83,27.45L342,231.78l29.18,9.63V270.6L342,280.22l-8.06,19.46,13.83,27.44-.12.12-20.52,20.52-.15-.08-27.3-13.75L280.22,342Zm-28.85-.47h28.51l9.59-29.06.1,0,19.76-8.19.1.05L327,347.19,347.19,327,333.42,299.7l0-.1,8.19-19.76,29.06-9.59V241.75l-29.06-9.59,0-.1-8.19-19.76,0-.1L347.19,185,327,164.81,299.7,178.58l-.1,0-19.76-8.19-9.59-29.06H241.75l-9.59,29.06-.1,0-19.75,8.19-.1,0L185,164.81,164.81,185l13.77,27.33,0,.1-8.19,19.76-29.06,9.59v28.51l29.06,9.59,0,.1,8.19,19.76,0,.1L164.81,327,185,347.19l27.33-13.77.1,0,19.75,8.19Z" fill="#1e120d"/></svg>