<svg id="Layer_1" data-name="Layer 1" xmlns="http://www.w3.org/2000/svg" viewBox="0 0 512 512"><title>paypal-handdrawn</title><g opacity="0.6"><path d="M239.54,171.49c1.16,1,54.19-60.21,54.19-60.21s-50.19,55.36-48.58,56.81c1.92,1.73,50.54-58.8,51.85-57.62l-46.29,57.64,50.06-55.62c1.68,1.51-45.22,55.4-45.22,55.4l49.78-55.31c.13.11-49.11,56.66-49.11,56.66,1.3,1.17,50.54-56.16,50.54-56.16l-47.5,54.37s50-56.65,50.52-56.13c.84.76-49.88,57.3-49.88,57.3L310,112.93s-52.41,55.23-50.63,56.84l51.23-56.92c.41.37-46.5,54.52-45.95,55,1.57,1.41,50-56.81,50.61-56.24,1.09,1-51.35,54.6-50.08,55.75l49.52-55S269.08,167.44,269.66,168c0,0,47.81-56.06,49.27-54.74l-49.58,56.33c.08.07,50.62-58.11,51.55-57.28,1.11,1-49.72,54.77-47.85,56.46.38.35,48.17-53.52,48.17-53.52s-43.84,54.51-42.62,55.61c1.43,1.29,50.12-55.69,50.12-55.69s-47.08,53.9-45.09,55.68,47.21-54.51,48.23-53.59c.41.37-43.53,56.28-43.53,56.28s49.94-55.93,50.16-55.73c0,0-47.47,57.65-46.08,58.9,0,0,51.07-57.07,51.23-56.93,2,1.76-49.6,57-49.6,57s48.42-57.84,50.42-56c1.64,1.47-49.36,54.9-49.36,54.9s49.33-55.06,49.45-54.95-48.32,54.75-46.67,56.23c1.82,1.64,47.55-55.74,49-54.44,1.06,1-50.89,56.37-50.51,56.71l51.53-57.25c.07.06-47.07,60-47.07,60l49.83-55.37c1.42,1.28-52,56.26-50.31,57.81S353.5,124,354.11,124.59l-53.86,60.12,53-58.86c.19.17-52.87,59.68-52.87,59.68s53.09-60.5,53.84-59.82c1.67,1.5-54,60.57-51.81,62.54l53.87-59.86L302.1,193.93c.74.67,57.36-63.73,57.36-63.73.63.57-58.47,63.36-56,65.63,1.56,1.41,56.65-62.95,56.65-62.95s-56.51,65.22-55.35,66.27c0,0,54.5-65.8,57.11-63.45l-59.4,70.22c1.39,1.25,62.06-69,62.06-69l-62.88,74.28c.34.31,65-73.31,65.53-72.81.37.33-66,74.16-66,74.23L367.52,139s-70,80-67.45,82.31L369.7,144c.91.82-75.42,84.68-74.26,85.73.21.19,74.9-83.23,74.9-83.23" fill="none" stroke="#00286f" stroke-linecap="round" stroke-linejoin="round" stroke-width="0.99"/><path d="M219.92,308.13c1.94,1.75,59.63-67.61,60.3-67,1.67,1.51-61.38,64.16-58.87,66.43l59.95-66.61-52.66,64.11s138.94-164.77,144.1-160.12c2.3,2.08-140.06,158.16-139.6,158.58,4.61,4.15,135.39-157,138.65-154.06,0,0-135.58,155.24-135.53,155.29,2.57,2.31,138.23-154.23,138.55-153.94L242.63,303.43l133.7-148.56C381.7,159.7,241.55,304,242.11,304.54c4.34,3.91,131.11-151.92,134.21-149.12l-129,150.43c2.82,2.54,124.81-149.1,130-144.44,0,0-127.9,140.3-125.94,142.07,4.86,4.38,120.89-144.81,126.1-140.12,4.31,3.88-124.26,142.54-124.26,142.54l125.3-139.22c2.12,1.91-119.37,138.58-119.37,138.58C262.87,308.59,378.89,169.93,380,171c0,0-122,129.91-118.4,133.17L381.49,171,269.26,304.08c.47.42,109.36-126.91,112-124.5,3.32,3-113.66,122.73-110.67,125.42,1.48,1.33,110.13-122.37,110.13-122.37S273,299.15,277.39,303.14c0,0,102.53-116.13,103.63-115.14.35.31-101.11,116.37-101.11,116.37C282.36,306.57,381.06,192,381.06,192L283.68,304.18C286.84,307,375.31,194.89,379,198.24l-86.95,104.1s85-99.17,87.35-97.06l-84.89,96.38c.15.14,84-95.34,85-94.44,3.25,2.93-81.57,92-80,93.33l77.07-85.64c.82.74-72.33,83.08-72.33,83.08l73.09-81.22c1.18,1.07-69.08,81.09-69.08,81.09L376.49,222c1.18,1.06-66.21,71.56-63.87,73.67s58.91-70.19,61.26-68.07c1.88,1.69-59.69,65.44-57.92,67,1.45,1.31,54.16-65.11,56.61-62.9,2,1.79-50.61,61.12-50.55,61.17s47.4-52.66,47.4-52.66-32.27,42.52-31.84,42.9c.06.05,23.2-26.48,23.55-26.16s-12.53,16.35-12.53,16.35,3.58-4,3.58-4" fill="none" stroke="#00286f" stroke-linecap="round" stroke-linejoin="round" stroke-width="0.99"/><path d="M174.88,118.39c.11.1,3.4-3.9,3.46-3.85l-5.54,13.87c.07.06,16.77-19.12,17-18.9,0,0-19.6,26.11-19.27,26.41.05,0,22.52-25.57,22.79-25.32,0,0-21.33,24-20.59,24.66.1.09,23.3-25.89,23.3-25.89s-25.9,35.68-25.69,35.87c.37.33,29.88-34.2,30.38-33.76L170.88,146,202.44,111s-34.65,44.82-34,45.44c.52.47,41.83-46.48,41.83-46.48.31.28-44.79,53.56-44.11,54.17,0,0,46.24-54.13,47.61-52.9,0,0-46.09,49.75-45.21,50.54l46.12-51.24-48.33,54,49.46-55L166.72,170.5l54-60c1,.89-54.25,61-53.61,61.54s53.15-61.23,54.23-60.26c.19.18-56.57,67.89-56.57,67.89s61.46-68.29,61.46-68.29c.73.66-65,73.76-63.2,75.38,0,0,67.09-76.55,68.09-75.65,0,0-70,77.53-67,80.18s73.51-81.72,73.53-81.7l-75.72,84.27s74.42-83.86,75-83.34-75.51,83.54-75.17,83.85l75-83.32c.25.23-75.15,88.13-75.15,88.13s78.7-89.62,79.78-88.65c2.6,2.34-81.17,94.26-81.17,94.26,2.33,2.1,81.58-94.26,83.38-92.64.4.36-82.7,95.72-82.42,96s87-99.42,88.35-98.17c.12.11-93,101.32-89.6,104.41,0,0,90.47-106.78,93.58-104s-94.62,106.08-94.62,106.08c.29.26,95.84-106.49,95.84-106.49.82.74-100.38,107.46-96.62,110.84s99.9-111,99.9-111L156.64,227.49c.32.29,102.2-117.36,104.09-115.66,0,0-107.34,113-103.94,116.05,2.71,2.44,105-119.68,106.51-118.34,4.76,4.29-107,120.49-107,120.49,2.32,2.09,102.35-122.39,106.66-118.51S158.28,229,158.28,229c1.69,1.53,106.37-118.19,106.37-118.19S154.15,236.89,155.2,237.84c.89.8,115.24-128,115.24-128,3.43,3.09-116.1,129.83-115.78,130.12C157.13,242.13,272,109.5,272,109.5c2,1.85-117.21,131.29-117.21,131.29L271.73,110.9c5.06,4.56-116.65,133.54-116.65,133.54s118.14-133.8,119.4-132.67c3,2.7-120.12,140-120.12,140s122-145.33,126.86-141c4.19,3.78-131.06,137.94-126.76,141.82,0,0,126.78-142.37,127.53-141.7L150.78,263.29c2.94,2.65,131.14-156.23,136.37-151.52,4.05,3.65-139.59,146.81-134.81,151.11L288.13,112S149.87,263.11,151.9,264.94c0,0,134.86-160,139.92-155.46.45.4-143.62,157.26-140.91,159.7,0,0,137.56-161.08,141.65-157.4,3.39,3.05-145.53,157.11-141.83,160.44,3,2.73,84.5-97.72,86.4-96,0,0-89.28,105.73-89.24,105.77s86.36-100,88.36-98.18c.63.57-88.55,96-87.1,97.34,0,0,83.62-96.93,85.62-95.13,3.25,2.93-90.44,102.42-87.58,105,0,0,84.89-97.71,86.57-96.19L146.41,296.22c.33.29,87.19-96.88,87.19-96.88L146.39,304.44c2.4,2.16,84.72-94.56,84.93-94.37,0,0-88.67,94.4-85.91,96.89L232,210.76S143.11,304.38,146,307c0,0,83.84-96.76,85.63-95.15L143.11,314.39c1.7,1.53,83.48-99.81,87-96.65,3.1,2.8-88.1,93.58-85.92,95.55,1,.94,85.74-95.78,86-95.55C231.21,218.67,144,318,144,318c.26.24,85.89-95.44,85.89-95.44,2.95,2.66-87.75,105.28-87.68,105.35,3,2.7,82.14-98.26,85.62-95.13,1.35,1.21-89.66,97.83-87.5,99.78l87.81-97.57c1.52,1.37-88.63,100.49-88.63,100.49s85.41-98.84,87.37-97.08c0,0-87,97.32-85.5,98.67l85-94.46S138.08,347.15,138.8,347.8c3.54,3.19,90.63-100.71,90.63-100.71L139.31,348c3.92,3.54,91.35-101.5,91.35-101.5s-97.78,111.14-94.95,113.69c0,0,99.17-115.2,101.66-113L136.91,359.21c1.6,1.44,99.45-116,102.17-113.52,2.27,2-106.34,119-103,122.06,4,3.62,110.17-122.41,110.17-122.41,3.38,3-114.86,131.32-113.21,132.81.53.48,117.22-130.24,117.22-130.24.64.58-117.92,135.77-117.92,135.77S255.61,246.12,255.92,246.41C260.54,250.57,132.25,391,132.25,391c.89.8,126.34-148.25,130.25-144.72,0,0-134.81,143-130.08,147.29.72.65,134.45-149.39,134.45-149.39,1.11,1-136.67,150.76-132.08,154.9C137.66,401.65,272,240.42,275.06,243.2c0,0-140.41,154.51-137.82,156.84,0,0,78.35-88.34,79-87.76.4.36-79.93,88.7-78.15,90.3,0,0,76.76-85.95,77.09-85.65,2.75,2.48-72,82.85-71.25,83.54.57.52,69.48-79.48,70.61-78.46l-66.71,79c1.09,1,66.54-73.93,66.54-73.93,2.74,2.47-64,74.08-63.68,74.38,0,0,59.7-71.71,62.37-69.3.81.73-59.26,69.21-59.26,69.21,2.24,2,56.6-66.69,58.49-65,.09.08-51.8,66.07-51.8,66.07s49.62-57.84,51-56.63-45.14,54.54-44.56,55.06c.79.71,41.13-49.4,43-47.74.29.26-41.61,49.77-41.61,49.77l39.34-43.72-33.32,41.17c1,.87,33.63-38.31,34.1-37.89L178.79,401s26.18-30.51,26.89-29.87-21.62,30.18-21.62,30.18,20.49-23,20.59-22.88c.75.68-15.82,23.15-15.82,23.15s15-16.81,15.08-16.75l-15,18.25L204,386.3c.09.08-4.83,11.36-4.83,11.36s2.17-2.41,2.17-2.41" fill="none" stroke="#00286f" stroke-linecap="round" stroke-linejoin="round" stroke-width="0.99"/><path d="M18.59,14.25c.21.19,7.41-8.38,7.48-8.31s-7.16,8.34-6.85,8.62l7.65-8.5L26.61,12S32,5.68,32.14,5.82s-1,4.5-.94,4.51,1.94-2.35,2-2.26l1.09,3.5C34.4,11.63,39,6.3,39,6.3l1.62,3.93L44,6.56c.16.15-3.84,4.77-3.83,4.79s4-4.68,4.13-4.59l1.11,5.9c.09.08,4.63-5.48,4.8-5.33,0,0-.77,2.93-.74,3s2.21-2.8,2.38-2.65-.54,5.08-.54,5.08L56,7.53c.05,0,1.27,4.54,1.27,4.54s4.83-5.45,4.87-5.41-2.51,4.19-2.41,4.28l5.13-5.7,2.22,6s4.37-5.06,4.47-5-3.31,5.88-3.19,6,4.86-5.4,4.86-5.4,1.58,3.66,1.69,3.76,3.61-4.1,3.66-4.06S77,12.19,77,12.19s5.31-5.9,5.31-5.9l-2,6.29c.14.13,4-4.74,4.13-4.59l3.32,3.8s4.72-5.47,4.84-5.37l-2.77,5.14S95,5.67,95.07,5.71s-1.53,5.92-1.45,6l3.54-3.93s.5,2.16.5,2.16l3.41-3.79c.06.05-.6,5-.6,5l5.08-5.65c.06.06-2.1,4.78-2,4.89s2.85-3.49,3-3.35-1,3.64-.92,3.71,3.07-3.77,3.25-3.61-.08,5.08-.07,5.08l4.5-5s2.54,4.61,2.59,4.65,4.24-4.83,4.3-4.78-.91,4.28-.91,4.28,3-3.33,3-3.33-1.91,2.33-1.91,2.33,2-2.38,2.07-2.3l3.66,3.31c.17.16,5.52-6.13,5.52-6.13s-.15,6.9-.07,7,4.65-5.16,4.65-5.16,4.59,3.18,4.66,3.24l4.23-4.7s-2.13,5.86-2,6,3-3.51,3.1-3.44.41,3.71.41,3.71S150.74,7,150.9,7.12s3,3.51,3,3.52l3.83-4.25,2.89,4,3.61-4c.18.16-2,5.69-1.89,5.82s6.18-6.86,6.18-6.86l.36,7.08c.1.09,5.54-6.15,5.54-6.15s2.2,5.74,2.2,5.74,4.84-5.37,4.84-5.37S179.92,11.93,180,12l3.8-4.23s-.42,2.24-.38,2.28,3.18-3.53,3.18-3.53-.43,5.24-.43,5.24,3.47-3.94,3.51-3.9.94,3.66.94,3.66,4.73-5.54,4.87-5.41-3.66,6.07-3.57,6.15l4.92-5.47s2.37,4.27,2.41,4.31,4.05-4.78,4.19-4.66,1.26,5.86,1.38,6,3.89-4.32,3.89-4.32,2.45,3.64,2.57,3.75l4.88-5.42c.15.13,1.07,5.66,1.17,5.76s6-6.92,6.14-6.82.07,6.4.08,6.4c.17.15,4.17-4.63,4.17-4.63s2.41,5.19,2.56,5.33,4.19-4.72,4.22-4.69-2.24,2.78-2.16,2.85,3.83-4.48,3.94-4.38-1.79,3.92-1.74,4L238,6.33s-3.73,5.81-3.56,6c0,0,4.63-5.41,4.76-5.29s2.2,5.19,2.2,5.19l4.95-5.5-2,4c.07.07,3.79-4.58,4-4.42,0,0-2.22,6-2.06,6.12,0,0,4.21-4.9,4.32-4.8l3.75,2.4a51.53,51.53,0,0,1,3.6-4s1.85,4.45,2,4.54,4.24-4.72,4.24-4.72-3.63,4.87-3.63,4.87,2.16-2.61,2.27-2.52-.6,4.42-.57,4.45,5.42-6.21,5.51-6.12l1.15,5.18,4.44-4.93s-1.19,5.7-1,5.84,3.87-4.56,4-4.44,4.13,2.58,4.23,2.67a30.89,30.89,0,0,1,2.64-2.93s-4.57,4.8-4.39,5c0,0,5.36-6.26,5.51-6.13s2,4,2,4,3.06-3.45,3.08-3.42-2.49,3.78-2.49,3.78l3.87-4.3-.83,5.2L294,7.37s-.18,3.79-.09,3.87a36.73,36.73,0,0,0,3-3.37c.13.11,4.47,2.29,4.53,2.35s2.44-2.85,2.51-2.78-3,3.5-3,3.54a34.94,34.94,0,0,0,2.82-3.14l3.47,3.31c.06.05,3.39-3.77,3.39-3.77s-2.82,3.24-2.78,3.28a34.08,34.08,0,0,1,2.48-2.76s1.73,2.33,1.76,2.36,4.11-4.56,4.11-4.56l1.36,6.22s3.61-4.32,3.76-4.18l1.41,4s3.91-4.53,4-4.45-1.65,5.46-1.63,5.49,4.55-5.12,4.58-5.09-1.78,3.8-1.74,3.85l4.48-5c.14.12,2,5.59,2.1,5.65s5.86-6.73,6-6.63l3,5c.18.16,2.8-3.11,2.8-3.11s3.05,4.82,3.14,4.9,5.51-6.27,5.58-6.2-3.52,6.23-3.52,6.23,5.95-6.61,5.95-6.61,1.14,5.26,1.2,5.31,4.79-5.61,4.93-5.48-1.2,5.05-1.2,5.05l4.71-5.23s1.93,5.36,2,5.46,4.44-5.16,4.55-5.06,1.81,4.77,1.87,4.82,3.67-4.1,3.68-4.09-4.19,4.73-4.11,4.8,2.93-3.49,3-3.38l.72,3.34c.13.11,4.13-4.59,4.13-4.59s-1.74,5.69-1.7,5.72,4.84-5.68,5-5.54l4,3.05s2.82-3.18,2.85-3.16-.15,6-.13,6,5.19-6,5.31-5.9.75,3.65.82,3.72S402.5,7,402.5,7s-1.78,3.18-1.76,3.21,2.21-2.47,2.22-2.46,1.15,2.37,1.22,2.44l2.05-2.28s2.74,3.31,2.87,3.43,3.47-4.16,3.62-4l3.68,3.46c.07.06,2.74-3,2.74-3s3.19,4.29,3.35,4.43c0,0,3.88-4.61,4-4.48l.84,3.57c.15.14,4.33-5.11,4.48-5s-1.37,5.33-1.32,5.37,3.59-4.19,3.69-4.1-3.59,4.87-3.44,5S436,6.75,436,6.75s1.26,3.5,1.36,3.59l4.17-4.63c.13.12-1,6.75-.87,6.83s6.32-7,6.32-7,.67,6.44.85,6.59c0,0,4.85-5.42,4.86-5.4s-1.18,5-1.18,5,5.3-6.08,5.39-6,2,5,2,5c.18.16,4-4.46,4-4.46s2.86,4.33,2.9,4.36,2.46-2.92,2.55-2.84-1.7,3.31-1.67,3.34l3-3.33c.1.09,3.26,4.09,3.31,4.12s3.47-4.19,3.63-4a20.75,20.75,0,0,0-.92,2.1s2.1-2.37,2.12-2.35-1.53,2.54-1.52,2.55a20.92,20.92,0,0,1,2.29-2.54s1.26,3.52,1.35,3.6S483.76,7,483.8,7l1.78,4.84c.08.08,3.07-3.73,3.23-3.59l4.41,3.61s3.38-3.88,3.44-3.83-3.13,7.72-3,7.83l4.77-5.3c.14.12-2,6.26-1.9,6.31s3.87-4.44,3.94-4.38-2.67,7.41-2.67,7.41l4.36-4.84-4.26,6c.14.13,5-5.71,5.08-5.64l-2.16,10s5.08-6,5.24-5.82c0,0-5.47,14-5.37,14.06s4-4.51,4-4.48-3.94,6.17-3.78,6.31,5.66-6.35,5.69-6.32-4.44,7.17-4.28,7.31,2.14-2.66,2.28-2.53-4.4,11.15-4.39,11.15l6.32-7c.24.22-6.17,13.55-6.17,13.55.21.19,4.27-4.74,4.27-4.74.16.14-2.34,5.37-2.2,5.5s4-4.5,4-4.45c.3.27-4.81,10.28-4.64,10.42s4.73-5.26,4.73-5.26-4.9,13-4.59,13.26l2.88-3.2s-4.59,12-4.42,12.13,6.18-6.86,6.18-6.86l-5.34,6.42c.1.09,3.73-4.15,3.73-4.15l-3.15,5.06s3.27-4,3.47-3.86-4.41,11.43-4.39,11.45l4.94-5.49-4.3,6.29c.19.17,4.35-5,4.42-4.91.25.23-4.31,11.24-4.31,11.24l3.07-3.41L500.34,100s4.29-5.09,4.45-4.95-3.64,5.66-3.46,5.82,5.17-6,5.27-5.86l-5,6s4.85-5.53,4.92-5.47-6.54,10.65-6.41,10.77,6.91-7.72,6.93-7.7-5.56,13.17-5.24,13.46c.09.08,3.89-4.35,3.9-4.34l-4.52,8.46,5.78-6.42s-4.72,9-4.63,9.08l4.69-5.22c.2.18-7.2,12.51-7.2,12.51l5.64-6.27s-4.62,11.2-4.62,11.2l6.07-6.74c.37.34-7,11.34-6.68,11.64s6.12-6.92,6.18-6.86-6.11,6.48-5.86,6.7c0,0,4.63-5.38,4.75-5.27.28.25-3.18,9.54-3.18,9.54.18.16,4.68-5.54,4.85-5.39.38.34-5.61,12.23-5.61,12.23s4.27-4.74,4.27-4.74c.15.14-4.27,11.71-4,12,0,0,3.64-4.1,3.66-4.07s-4.45,12.18-4.32,12.29a53.07,53.07,0,0,0,3.78-4.2c.31.28-4.21,12.3-4.21,12.3.19.17,4.37-4.85,4.37-4.85s-3.56,6.31-3.4,6.45c0,0,4.51-5.37,4.69-5.21,0,0-5.59,10.2-5.44,10.34s3.86-4.29,3.86-4.29c.23.2-3.68,9-3.42,9.18,0,0,5.3-6,5.35-5.94.26.24-5,14.09-5,14.09s4.57-5.12,4.59-5.1-5.71,13.64-5.3,14c0,0,4.52-5,4.52-5l-3.15,6.14c.18.16,3.14-3.56,3.17-3.53s-4.13,11.1-4.06,11.17l4.78-5.31s-5.7,12.58-5.51,12.75l4.83-5.36c.05,0-4.2,8.64-4.2,8.64s3.7-4.33,3.81-4.23-5.46,9.89-5.18,10.15c0,0,6.68-7.45,6.69-7.44.44.4-7.08,13.62-6.64,14,.14.13,4.58-5.08,4.58-5.08s-4.08,5.84-4.08,5.84,5.42-6.17,5.5-6.11c.23.2-5.06,5.69-5.06,5.69s5.3-5.89,5.3-5.89-4.08,6.64-4.06,6.66,4.46-5.13,4.54-5-6.66,8.55-6.52,8.67,5.75-6.59,5.85-6.5-4.13,8.27-3.88,8.5a35.17,35.17,0,0,0,2.62-2.91c.14.12-4.77,9.89-4.58,10.06,0,0,4.21-5.09,4.41-4.91,0,0-3.69,5.37-3.58,5.47s5.25-6.14,5.4-6-4,11.77-4,11.77,3.24-3.84,3.36-3.73L502,253a24.2,24.2,0,0,0,2.51-2.79s-2.31,3.14-2.25,3.19l3.41-3.79L500,263.76c.17.15,4.84-5.38,4.84-5.38s-4.94,6.21-4.93,6.22c.2.18,6.07-6.8,6.1-6.78s-5.38,11.94-5.06,12.22c0,0,4.92-5.68,5-5.58s-4.18,4.82-4.14,4.86c.2.18,3.9-4.75,4.11-4.56s-3.95,10.68-3.72,10.88l3.19-3.55-3.11,4.17c.1.09,4.64-5.15,4.64-5.15.38.34-5.79,12.21-5.39,12.57,0,0,4.68-5.5,4.83-5.36s-4.67,12.64-4.53,12.78,5.17-5.75,5.17-5.75-6,11.12-5.73,11.34c0,0,3.65-4.38,3.81-4.24L501,305l5.56-6.18c.14.12-5.71,7.92-5.5,8.11l4-4.49s-5.35,7.74-5.18,7.88c0,0,6.1-6.94,6.18-6.86s-4.15,12.74-4,12.83,2.57-3,2.63-2.93-4.13,10.35-3.81,10.64c0,0,3.47-4.26,3.67-4.08s-4.17,11.71-4.17,11.71,6-6.66,6-6.65-4.29,7.38-4.18,7.47,4.46-5.29,4.63-5.14c0,0-5.49,9.09-5.32,9.25s3.59-4.27,3.73-4.14-5.17,10.56-5,10.72,4.42-4.92,4.42-4.92-2.77,4.19-2.77,4.19l4.71-5.23c.13.12-6.3,13-6,13.25s4-4.63,4.08-4.53l-2.2,8.19s2.42-2.87,2.51-2.79-5,7.65-4.71,7.88,4.27-4.74,4.27-4.74l-3.25,8.24,3.82-4.25-3.73,10.3c.1.09,3.44-4.09,3.57-4s-4.19,9.56-4.07,9.67,5.74-6.75,5.93-6.59l-5.82,11c.1.09,4.35-4.83,4.35-4.83s-4,9.08-3.9,9.15,4.77-5.44,4.84-5.38-5.66,7-5.66,7,5.13-5.75,5.15-5.73-5.09,10-4.94,10.09,4.67-5.19,4.67-5.19L501,391.7s4.9-5.79,5.07-5.64-5.43,9.92-5.43,9.92l3.85-4.28c.11.1-2.34,5.11-2.25,5.18l4.36-4.84c.1.09-6.2,8.3-6.2,8.3s6.57-7.48,6.66-7.4l-6.57,12.32s6.28-7.17,6.37-7.08-5.4,5.76-5.17,6c.07.06,3.33-3.7,3.33-3.7.23.2-3.68,7.39-3.68,7.39s5.69-6.5,5.78-6.42L500.41,415s4.23-4.7,4.23-4.7-4.2,7.52-4,7.7l3.84-4.27c.06.05-2.81,8.32-2.57,8.54.06.05,3.09-3.84,3.29-3.65l-3.71,7.4s4.48-5.33,4.65-5.17c.33.3-6.18,12.44-6.18,12.44s5.6-6.23,5.6-6.23c.23.2-3.43,11.32-3.43,11.32a30.74,30.74,0,0,0,2.87-3.19s-4.73,7.44-4.5,7.65c0,0,5.05-5.93,5.21-5.79l-3.64,6.16c.18.16,3-3.59,3.12-3.47l-3.54,4a35.75,35.75,0,0,0,3.06-3.4s-4.2,10.13-3.89,10.41c0,0,3.58-4.21,3.7-4.11s-3,6.89-2.89,7l3.73-4.14s-4.82,7.66-4.58,7.87c0,0,4.82-5.48,4.88-5.42s-4.24,10-4.24,10,3-3.47,3.06-3.4-2.78,6.26-2.62,6.41,3.27-4,3.46-3.84c0,0-3.82,11.3-3.8,11.33s4.61-5.23,4.66-5.18-6.35,7.6-6.35,7.6,6-7.09,6.22-6.91-5.16,8.12-4.91,8.35l4-4.45c.24.21-5.52,13.24-5.27,13.47.09.09,5.39-6.05,5.42-6s-3.36,5.11-3.22,5.23,4.42-5.32,4.62-5.14-9,14.34-8.7,14.65c.18.16,6.54-7.79,6.8-7.56l-6.51,7.33c.31.28,7-7.83,7-7.78" fill="none" stroke="#00286f" stroke-linecap="round" stroke-linejoin="round" stroke-width="0.99"/><path d="M9.72,16.83c.14.12,4.09-4.7,4.17-4.63L7,27.59s7.55-8.59,7.65-8.5-9.14,14.81-9,15c0,0,6.07-6.86,6.13-6.81S8.05,32.88,8.21,33,12.9,27.8,12.9,27.8,7.12,41.41,7.19,41.47s3.74-4.3,3.81-4.24L8,42l3.5-3.89S6.85,50.59,7,50.74s5.39-6,5.39-6S5.56,57.23,5.7,57.36s5.42-6.3,5.56-6.18S8.1,54.88,8.16,54.93l3.73-4.14L6,57.66l6.7-7.45L7.54,62.3l4.31-4.79c.08.08-3.64,5.91-3.59,6s2.35-2.79,2.43-2.71-3.83,9.28-3.83,9.28l4.2-4.66c.09.08-5.17,10.48-5,10.67,0,0,5.14-5.85,5.21-5.79S8,79.15,8.23,79.4s4.45-4.95,4.45-4.94L6.07,81.93s5.74-6.45,5.78-6.42S5.93,82.35,6,82.37l5.41-6s-4.71,9.85-4.71,9.85,5.11-5.81,5.18-5.75C12.09,80.69,6,91,6,91s4.24-4.92,4.35-4.83-2.58,7.22-2.57,7.24,4.48-5.12,4.55-5.05-5.17,10-4.88,10.28c0,0,4.34-5.14,4.5-5s-5.36,6.9-5.36,6.9,5.73-6.37,5.73-6.37-6.15,9.72-5.85,10,6-6.66,6-6.66L6.06,109.73s4.55-5.23,4.64-5.15-4.54,5.3-4.39,5.43,6.38-7.22,6.45-7.16c.33.3-6.66,9-6.66,9s4.69-5.6,4.88-5.42a46.39,46.39,0,0,1-2.66,4.11c.07.07,3.34-3.71,3.34-3.71s-5.48,11.39-5.4,11.46,6.27-7,6.27-7C12.74,111.49,6,120,6,120s6.78-7.54,6.78-7.54-6.43,8.2-6.43,8.2l5.17-5.75c.27.25-4.18,8.57-4.18,8.57s3.35-3.82,3.39-3.77-2.87,9.77-2.87,9.77,3.52-4.27,3.7-4.11S8,130,8.15,130.17s3.28-3.7,3.31-3.68L5.7,139.43c.1.09,4.87-5.77,5-5.61s-3.38,4.79-3.24,4.92l3-3.37s-3.24,5-3.18,5.1,5.29-6.22,5.46-6.07-6,9.52-5.86,9.65,3.74-4.42,3.87-4.3-3.64,6.63-3.51,6.75,4.74-5.47,4.84-5.38-6.43,13.76-6.43,13.76,6.67-7.63,6.78-7.53S7,153.84,7.09,153.93s3.93-4.58,4-4.48c.32.29-4.83,12.49-4.55,12.74,0,0,4.87-5.6,5-5.52L6.6,166.5s5.57-6.18,5.57-6.18L8.11,173c.13.12,3.27-3.66,3.28-3.65s-4.15,5.73-4,5.87l4.92-5.47S8,175,8.12,175.11c0,0,3.88-4.51,4-4.42L6,181.64c.09.08,5.13-6.08,5.32-5.91S7,180.42,7.09,180.52s4.31-4.82,4.33-4.81-3.61,8.54-3.61,8.54S12,179.56,12,179.56c.29.27-4.52,12.93-4.51,12.94.16.15,3.73-4.52,3.91-4.35S6,196.46,6.12,196.61l6.1-6.78c.13.12-6.55,9.28-6.55,9.28s5.55-6.38,5.65-6.28-3.18,7-3.09,7.11l3.29-3.65S7,209,7.08,209.08s4.13-4.59,4.13-4.59l-3.46,4.65c.2.18,4-4.4,4-4.4s-6.32,14.6-6,14.88c0,0,5.23-6,5.35-5.94l-4.1,4.86c.07.07,5.41-6.26,5.53-6.15s-5.19,12.82-4.89,13.09,5.19-5.77,5.19-5.77c.31.28-7.06,14.57-6.91,14.71s4.52-5,4.52-5S6.06,239,6.06,239s5.54-6.18,5.56-6.17c.31.28-4.33,12-4.33,12s3.86-4.57,4-4.44-4,6.8-3.79,7c0,0,5.46-6.07,5.46-6.07s-6,14.13-5.67,14.45c.1.09,4.81-5.55,4.92-5.46S7.54,258.84,7.66,259s2.86-3.25,2.9-3.22S5.9,264.1,6,264.23s6-6.66,6-6.64c.24.21-3.95,8.63-3.88,8.69s4-4.59,4.07-4.52l-4.58,10c.08.07,5.33-5.93,5.33-5.93.32.29-5.78,10-5.74,10s4.91-5.86,5.11-5.68-5,9-5,9c.18.16,4.74-5.57,4.89-5.44s-5.86,15-5.86,15,6.49-7.47,6.62-7.36-5.31,11.24-5.21,11.33,4.46-5.35,4.66-5.17-6.48,10.73-6.48,10.73l4.87-5.41-2.58,7c.13.12,4.07-4.66,4.14-4.6L7.67,306.05a45,45,0,0,1,3.06-3.4c.2.18-3.33,9.86-3.33,9.86s3.44-3.87,3.46-3.85c.28.25-3.71,9.69-3.71,9.69s4-4.48,4-4.46l-5.44,7.62,5.81-6.46c.09.08-4,11.55-4,11.55s4.43-4.92,4.43-4.92c.16.15-6.19,13.39-5.94,13.61,0,0,6-6.73,6-6.68.29.26-4.35,9.89-4,10.17.08.07,3.3-3.67,3.3-3.67S7.92,338.88,8,339s2.32-2.94,2.5-2.78S7,347.6,7.31,347.9c0,0,4.19-4.82,4.27-4.74s-5,12.9-5,13,4.63-5.23,4.67-5.19-5,6.78-5,6.78c.2.18,5.49-6.51,5.7-6.33s-5.73,8.11-5.52,8.3c0,0,4.66-5.59,4.87-5.41s-5.64,6.81-5.54,6.9l7.21-8-4.78,8.6s2.3-2.56,2.3-2.56c.24.22-3.09,9.35-3.09,9.35s3.94-4.69,4.1-4.55c0,0-5.2,9.81-5.19,9.82s4.61-5.29,4.7-5.22c.27.24-3.15,9.28-3.15,9.28l3.79-4.21c.09.09-3.43,9.77-3.43,9.77s2.51-3.19,2.71-3-4.57,13-4.26,13.27L10.87,389c.28.26-5.13,8.42-5.13,8.42.15.14,4.66-5.28,4.71-5.23l-2.83,3.65c.12.11,4.85-5.45,4.88-5.42L6.5,402l6.1-6.78c.25.22-6.78,8.06-6.78,8.06s5.58-6.36,5.65-6.28l-4,10s4-4.72,4.14-4.6-5.26,6-5.09,6.12l4-4.44c.1.09-4.72,9-4.72,9s6.14-7.21,6.33-7c0,0-6.42,7.74-6.22,7.92L11,408.3s-4.94,8.31-4.81,8.43S11,411.38,11,411.38s-4.52,4.88-4.33,5,4.7-5.61,4.89-5.43L7.4,423.57s5.31-6,5.36-6-5.24,6.54-5.14,6.62L11,420.53s-4,6.37-3.87,6.51c0,0,3.85-4.45,3.93-4.37S6.8,435.32,6.85,435.36s3.9-4.44,4-4.4-5,7.8-5,7.87l4.52-5-4,12.92s5.41-6.18,5.5-6.11l-4.62,6s3.66-4.21,3.73-4.15-4.59,10.35-4.5,10.43,6.17-7.14,6.31-7l-5.28,6.17c.14.13,4-4.69,4.14-4.6s-5.23,6-5.21,6,3.86-4.57,4-4.44-3.74,6.49-3.57,6.65c0,0,4-4.79,4.15-4.61L6.54,463.81s5-5.69,5.06-5.63-3.79,9-3.61,9.16l2.82-3.13s-2.62,3.54-2.62,3.54,3.09-3.44,3.09-3.44-3.6,7.08-3.6,7.08,3.33-3.79,3.38-3.75c.25.22-5.46,11-5.22,11.21L11,473.14c.17.16-3,5.43-2.81,5.57s4.08-4.54,4.08-4.54-6.26,9.16-6,9.39,5.13-5.76,5.16-5.73c.19.18-4.11,7.91-4,8s4.29-4.77,4.29-4.77-4.4,9.51-4.22,9.68c0,0,4.73-5.49,4.85-5.39S9,490.16,9.07,490.19l2.39-2.66S8.88,492.88,9,493s3-3.47,3.08-3.43l-3.46,6A46.61,46.61,0,0,1,12,491.87c.18.17,1.33,6.79,1.36,6.81s2.9-3.29,2.93-3.26-2.4,6.06-2.3,6.14,4.92-5.49,4.93-5.48-1.62,7.17-1.59,7.2,4.19-4.74,4.23-4.7,2.48,5,2.57,5.08S26.48,501,26.49,501s.68,4,.68,4,3.59-4.16,3.67-4.08,2.56,4.78,2.7,4.9,3.75-4.17,3.75-4.17l-2.39,5.15s4.29-4.94,4.38-4.86a49,49,0,0,1-2.06,5c.16.15,4.39-4.93,4.42-4.91l-1.74,4.7s4-4.79,4.18-4.65,3,4.55,3.16,4.66,5.37-6,5.37-6l4.25,3.68,3.89-4.33c.06.06,2.13,5.78,2.28,5.91s4.16-4.65,4.18-4.64.89,3.11.89,3.11,2.17-2.73,2.33-2.59-1,3-.91,3.05,3.42-4.12,3.58-4l-1,5.52,4.76-5.29c.1.09-1.11,5-1,5.11l5.33-5.92c.12.11,1.15,6.39,1.15,6.39s4.45-4.94,4.45-4.94-.55,5-.44,5.06,5.85-6.65,5.92-6.58-3.42,6-3.26,6.14,4.41-4.94,4.43-4.92-.34,4.09-.34,4.09c.18.17,4.71-5.24,4.71-5.24s0,5.22.14,5.3,4.17-4.79,4.25-4.72S101,504.93,101,505s3.8-4.25,3.81-4.24-1.68,4-1.55,4.07,2.33-2.9,2.48-2.76l3.76,3.06c.16.14,3.59-4,3.59-4s.75,5.41.75,5.41c.17.16,4.56-5.38,4.72-5.24l-3.45,4.46s3.28-3.74,3.32-3.69l.19,3.09s4.18-4.64,4.18-4.64,0,4.87.07,4.9,4.33-5,4.42-4.91,2.23,4.81,2.39,4.94l4.73-5.26s.95,6.79,1,6.88l5.57-6.19c.08.07-.14,6-.08,6.05s5.72-6.66,5.87-6.53-1.64,6.37-1.56,6.45,5.27-5.86,5.27-5.86-1.53,3.85-1.46,3.91,2.65-3.09,2.72-3l4.34,2.53,2.62-2.91a37.56,37.56,0,0,0-1,3.7,34.61,34.61,0,0,0,2.57-2.85L164,506c.05,0,3.2-3.57,3.21-3.56s5.19,2.37,5.19,2.37l2.74-3s-2.79,3.79-2.75,3.82,4.38-5.17,4.53-5-3.16,6.51-3.16,6.51,4.09-4.86,4.25-4.72a43.91,43.91,0,0,1-2,4.19s4.64-5.49,4.8-5.34-1.46,4.5-1.39,4.56,3.24-3.62,3.25-3.61,1.24,2.75,1.31,2.81l3.72-4.13-3.87,4.59,2.82-3.13s.6,3.53.67,3.59,4.7-5.55,4.86-5.4-3.3,4.18-3.19,4.28a20.19,20.19,0,0,0,2.06-2.29,20.37,20.37,0,0,0-.76,2.07s3.93-4.58,4-4.48-6.08,7-5.83,7.19c.1.09,6.68-7.5,6.72-7.46s-2,6.57-1.85,6.67,5.67-6.6,5.82-6.47c0,0-1.69,6.84-1.6,6.92l5.53-6.14c.09.08-.41,6.39-.4,6.41s4.73-5.48,4.84-5.38l1.85,2.61c.11.1,2.46-2.8,2.5-2.77l2.06,3.22s4.23-4.87,4.32-4.8-5.7,7-5.44,7.19l6.34-7-4.08,6.59s6.19-6.88,6.19-6.88a44.9,44.9,0,0,0-1.7,4.58,43.75,43.75,0,0,1,3.09-3.43s.75,3.7.75,3.7l4.18-4.64c.12.11-3.1,4.49-3,4.57s3.16-3.66,3.23-3.59,4.28,3.34,4.44,3.48c0,0,2.56-2.95,2.61-2.9s-2.77,5.34-2.6,5.49,4.6-5.25,4.67-5.18l2.57,4.84c.14.13,6.15-7,6.22-6.91s2.66,5.25,2.66,5.25l2.81-3.12s.24,3,.24,3a30.8,30.8,0,0,1,2.32-2.58l3.1,2.36c.12.1,4-4.43,4-4.43s.71,6.07.82,6.16,4.65-5.54,4.84-5.37c0,0,2.16,3.57,2.23,3.63l2.49-2.77s-1.48,3.87-1.43,3.92,4.67-5.44,4.8-5.33-3.89,4.63-3.79,4.71l4.44-4.93-2.52,6.29,5.6-6.23a52.58,52.58,0,0,1-2.33,4.74s3.79-4.32,3.85-4.27-2.49,6.18-2.36,6.3,5.26-6.06,5.37-6a50,50,0,0,0-3.19,3.92c.12.11,3-3.58,3.12-3.46s.79,5.35.9,5.45,6-7,6.17-6.85-4.7,6.49-4.6,6.58,4.53-5.17,4.6-5.11a35,35,0,0,1-1.11,3.62s5.15-5.72,5.15-5.72-4.42,5.25-4.3,5.36,4.15-4.61,4.15-4.61,1.93,5.11,1.95,5.13,5.08-5.65,5.08-5.65l-.9,6.76s5.31-6.23,5.47-6.08l4.07,3.94c.12.11,4.36-4.89,4.38-4.87s1.74,5.45,1.85,5.55,2.67-3.13,2.75-3.05-2,4.63-2,4.7,4.88-5.42,4.88-5.42-2.69,5.57-2.57,5.68,6.69-7.44,6.69-7.44l2.3,4.86c.07.07,2.73-3.13,2.78-3.09s2.18,3.44,2.18,3.44,3.75-4.4,3.87-4.3-2.87,6.49-2.73,6.61,4.67-5.52,4.83-5.37c0,0,1.15,2.47,1.19,2.51s3.47-4.2,3.64-4l-4.15,6.08s3.56-4,3.58-4-1.17,2.26-1.15,2.28l3.89-4.32s1.42,6.35,1.46,6.4,5.55-6.27,5.6-6.22l-4.3,6.67s4.35-5,4.46-5-2.55,4.72-2.47,4.8,4.89-5.55,5-5.5a55.35,55.35,0,0,1-2.42,5.34c.18.17,4.6-5.11,4.6-5.11s1.64,2.72,1.64,2.72l2.54-2.82-2.27,4.74c.09.08,4.5-5.13,4.56-5.07s-2.85,4.87-2.85,4.87,4.73-5.39,4.8-5.33l-4.5,6.22s6.49-7.22,6.49-7.22-2.76,6.53-2.68,6.6,5.87-6.52,5.87-6.52-.1,5.89,0,6,4.69-5.34,4.75-5.28,2.61,5.39,2.61,5.39,5.12-5.85,5.2-5.78-.61,6.62-.54,6.69,5.46-6.07,5.46-6.07l-.49,5.27c.08.07,3.15-3.78,3.29-3.66s1.46,3.14,1.47,3.14,5-5.77,5.13-5.7,2.09,5.42,2.22,5.54,5.28-5.87,5.28-5.87l-2.37,6.53s3.67-4.09,3.67-4.08-2,4.63-1.94,4.71S409.2,502,409.2,502s-.39,4-.32,4.05,5.63-6.43,5.71-6.35l1.83,6.39s3.4-3.79,3.41-3.79l1.86,4.38s5.54-6.22,5.57-6.19-2.92,5.72-2.88,5.75,4.89-5.43,4.89-5.43-3.61,6.13-3.58,6.16,4.45-5.14,4.55-5.05l-2.36,4.87s5.4-6,5.42-6,.17,4.05.18,4.07,4.34-5.1,4.48-5-1.48,5-1.34,5.16l3.11-3.45c.12.11-2.25,4.67-2.25,4.67s5.4-6,5.4-6-1.81,4.83-1.67,5,3.86-4.42,3.93-4.36.37,3.54.38,3.55,2.46-2.85,2.52-2.8l-.13,4s3.68-4.31,3.79-4.21,2.24,3.65,2.33,3.73,4.7-5.23,4.71-5.23-3,6-3,6l5.23-5.81c.16.15,2.43,5.31,2.43,5.31l2.83-3.15-1.9,5,6.6-7.33,1.44,6.2s4.42-5,4.46-5-4.33,4.78-4.26,4.84,5-5.57,5-5.57-.26,4.41-.21,4.46,3.38-4.13,3.56-4c0,0,2.06,4.92,2.06,4.92.19.17,3.32-3.69,3.32-3.69s-1.91,5-1.91,5,5.41-6.07,5.44-6l.47,4.57s15.15-18,15.71-17.45S494.46,503,494.72,503.25s9.67-10.74,9.67-10.74l-6.38,8.8c.12.11,2.75-3.15,2.8-3.11" fill="none" stroke="#00286f" stroke-linecap="round" stroke-linejoin="round" stroke-width="0.99"/></g><g opacity="0.9"><path d="M246.7,164c1.64,1.48,41-49.62,43-47.8.9.81-35.36,44.67-33.46,46.38.68.61,37.93-49.43,41.55-46.16,1,.89-32.27,43.93-30.21,45.78,2.42,2.18,38.79-47.47,41-45.51.44.39-34.88,46.15-34.8,46.21,1.14,1,39.85-44.88,40.15-44.61S277.68,164,278.52,164.8c.65.58,39.45-46.72,40.88-45.43.43.38-30.32,45.34-28.32,47.13,0,0,36.6-44.37,38.44-42.71.25.23-32.76,44.81-30.35,47,2.2,2,40.91-45.46,40.91-45.46s-37.57,47.25-36,48.71c0,0,37-48.11,40.46-45,2,1.79-41.73,48.16-38.79,50.8,0,0,40.82-49,42.63-47.37.78.71-41,59.69-40.12,60.52,2.3,2.07,48.51-54,48.56-54s-51.46,66.56-50.38,67.53c0,0,53-63.27,55.17-61.3,4.22,3.8-60.34,76.94-60.1,77.15s64.47-71.88,64.59-71.77" fill="none" stroke="#00286f" stroke-linecap="round" stroke-linejoin="round" stroke-width="2.24"/><path d="M227.83,299.81c2.63,2.37,42.76-53.85,45.91-51,2.54,2.29-43,49.09-40.26,51.56,6,5.41,132.38-151,134.33-149.26,2.11,1.9-122.88,148-122.88,148C253.48,306.78,369.29,157.5,371,159c0,0-115.48,134.76-110.49,139.26,0,0,108.08-131.9,114-126.61,0,0-108.78,124.81-105.46,127.8.5.45,100.57-122.57,106-117.73.4.36-102.24,111.65-96.33,117,0,0,94.12-108.79,96.21-106.91,3.34,3-84.85,105.77-84.85,105.77,1.79,1.62,80.71-97.09,84.39-93.77C375.49,204.82,297,296,297,296c3.69,3.33,72.89-90.72,77.72-86.36,1.62,1.46-59.23,82.28-59.23,82.28.36.32,50.25-64.89,54.75-60.83,1.41,1.27-41.09,51.83-38.93,53.77,1.62,1.46,30.21-34.81,30.82-34.25,1,.89-12,20.63-12,20.63.41.37.17-.37.26-.29" fill="none" stroke="#00286f" stroke-linecap="round" stroke-linejoin="round" stroke-width="2.24"/><path d="M177.6,129.4c1.42,1.27,10.18-12,10.52-11.69,0,0-11.42,18.51-11.33,18.59.52.47,17.07-19,17.07-19,.92.83-22.8,30.78-21.17,32.25,2,1.76,28.78-36.49,31-34.47.94.85-30.4,40.46-30.4,40.46,2.22,2,35.44-41,36.25-40.28L169.45,172.8c3.61,3.26,48.92-56,49.75-55.28,0,0-57.37,71.12-53.26,74.82.72.65,67.78-77.77,69-76.67,1.64,1.48-72.63,84.28-70.11,86.56,4.73,4.26,75.45-90,78.54-87.26.3.27-80.56,99.52-80.46,99.61,4.72,4.26,86.32-99.19,87.95-97.72,5.05,4.55-92.93,100.81-88.57,104.74,7.1,6.39,93-107.7,95.18-105.76,0,0-98.1,110.5-95.73,112.63,3.93,3.54,93.07-118.94,100.78-112C266.43,120,155.24,248,157.43,250L278.77,115.15c.15.14-127.26,148.74-123.53,152.1l76.94-85.49s-83,98.72-79.93,101.53c3.39,3,76.58-85.09,76.58-85.09,4.33,3.9-78.75,98.26-77.84,99.08,6,5.44,73.91-84.58,75.13-83.48s-78.19,96.62-78.19,96.62,76.45-88,78-86.64c0,0-81.86,99.72-79.09,102.22,3.38,3,69.73-86.83,74.38-82.64,1.28,1.15-81.9,96.67-77.74,100.41.89.8,80.78-92.26,82-91.14,2.88,2.59-89.77,95.85-84,101.07,3.57,3.22,90.95-101.05,90.95-101.05,2.21,2-92.87,117.44-92.87,117.44.49.44,105.93-117.7,105.93-117.7,6.57,5.92-110,135.71-109.85,135.88C141,393.11,254.73,247,259.16,251c6.45,5.81-127.84,136.76-120.69,143.2C147.19,402.09,261.82,246,267.37,251c0,0-125,139.28-119.54,144.15,2.18,2,62-70.23,62.66-69.62,2.69,2.42-51.62,69.25-50.44,70.31,0,0,41.66-54,45.5-50.56,2.07,1.86-34.13,48.91-33.35,49.62,2.49,2.24,28.48-37.79,31.53-35,1.8,1.62-23.3,34.19-21.32,36,.27.24,19.24-21.91,19.51-21.67,0,0-7.49,22.6-7,23l3.46-3.84" fill="none" stroke="#00286f" stroke-linecap="round" stroke-linejoin="round" stroke-width="2.24"/><path d="M498,498.81s1.74-3.16,2.35-2.61" fill="none" stroke="#00286f" stroke-linecap="round" stroke-linejoin="round" stroke-width="2.24"/></g><path d="M186,110.42c-2.52,3.91-10.12,6.14-15.63,13.31,1.63.85-39.66,269.47-41.74,266.7,2.86,7.23,5.92,9.35,10.4,15,.5-4.9,50.2-5.26,51.81-4.8,7.86,2.32,13.6-3.76,10.18-10.3,1-1.5,14.12-71.13,13.77-71.57,4-7.38,7.7-17,15.74-15.7-1.73,3.2,29.22,3.31,30.5,2.49,68-1.86,105.66-35.29,119.87-99.17,4-32.36-1.51-49.84-14.47-70-14-15.89-39.26-23.76-73.87-25.28C290.2,111.54,187.41,113.19,186,110.42Zm117,98.75c-5.38,37.49-33.93,36.71-62.38,38.24.46-1.26-14.94-.62-15.59-1.3,1.15.47,11.69-69.78,11.62-69.67.62-4.11,4.48-7.3,9.2-8.73.24,2.17,7.25,1.92,5.92.57,18.68,1.09,36.73,1.67,46.52,11.35C303.62,186.77,304.25,196,302.94,209.17Z" fill="none" stroke="#170c66" stroke-width="1.24"/><path d="M485.48,11.24c10.17,6.56,13.94,8.67,13.35,17.47-4.94,1.53-4.8,458.74.9,454.11-2.52,11.93-11.45,14.57-12.4,24.15-8.16-8.24-459.41-8.83-458.18-8.06-5,3.9-12.4-4.7-24.15-12.42C9.79,483.88,13.65,34.39,9.69,27,18.83,24.39,21.31,9.85,28.55,5.54c.09,11.9,450.23,12.09,457.12,4.19m-.23-3.48C487.09,13,30.82,7.93,20.65,7.77,13.81,9.66,4.73,23,.56,20.42,8,33,6,481.71,4.22,491.06c1.33,3.39,12.28,12,25,12.79,3.64,4,456.19,2.37,453.77,3.65,6.68-3,19.84-8.48,25.79-18.12-.66-3.11-5.3-463.93,2.93-467.91-9.57.35-21.66-8.68-26.09-16.74C482.49,8.19,481,11,485.44,6.26Z" fill="none" stroke="#170c66" stroke-width="1.24"/></svg>