<svg xmlns="http://www.w3.org/2000/svg" viewBox="0 0 48 48"><title>pdf-file-document-glyph</title><g id="pdf-file-document"><path d="M32,21.16a1.19,1.19,0,0,0,.17-.31c-.09,0-.22-.15-.89-.15a10.87,10.87,0,0,0-1.37.08c.62.48.77.72,1.17.72A1.14,1.14,0,0,0,32,21.16Z" fill="#231f20"/><path d="M17.58,26.76c.11,0,.77-.34,2-2.61-1.62.91-2.28,1.66-2.33,2.08C17.24,26.3,17.22,26.49,17.58,26.76Z" fill="#231f20"/><path d="M41.07,31.59v-19a1.75,1.75,0,0,0-.42-1.36L31.82,2.42a1.43,1.43,0,0,0-1-.42H8.8A2,2,0,0,0,6.93,4.22V31.59Zm-10.62-27a.39.39,0,0,1,.67-.28L38.77,12a.39.39,0,0,1-.28.67h-8ZM16,26.09c.14-1.23,1.67-2.53,4.54-3.84a51,51,0,0,0,2.87-8.16c-.76-1.65-1.49-3.79-1-5a1.46,1.46,0,0,1,.86-.92A3.72,3.72,0,0,1,24.07,8c.38,0,.72.49,1,.8s.73.89-.28,5.16a24.23,24.23,0,0,0,3.86,5.74,14.72,14.72,0,0,1,2.55-.27c1.19,0,1.91.28,2.2.85a1.53,1.53,0,0,1-.3,1.64,2,2,0,0,1-1.68.9,5,5,0,0,1-3.19-1.73,36.32,36.32,0,0,0-6.7,2.14,21.53,21.53,0,0,1-1.81,3.22c-.78,1.09-1.45,1.6-2.11,1.6h0a1.22,1.22,0,0,1-.73-.25A1.82,1.82,0,0,1,16,26.09Z" fill="#231f20"/><path d="M18.1,36.79a1.25,1.25,0,0,0-.45-.37,1.68,1.68,0,0,0-.77-.15h-.93v3h1.14a1.36,1.36,0,0,0,.45-.08,1.14,1.14,0,0,0,.41-.25,1.25,1.25,0,0,0,.3-.49,2.33,2.33,0,0,0,.11-.78,2.11,2.11,0,0,0-.05-.43A1.24,1.24,0,0,0,18.1,36.79Z" fill="#231f20"/><path d="M24.26,15.79a54.24,54.24,0,0,1-2,5.74A37.89,37.89,0,0,1,27.16,20,26,26,0,0,1,24.26,15.79Z" fill="#231f20"/><path d="M6.93,33.1V44.48A1.84,1.84,0,0,0,8.8,46H39.2a1.84,1.84,0,0,0,1.87-1.52V33.1Zm12.44,5.64a2.21,2.21,0,0,1-.55.79A2.48,2.48,0,0,1,18,40a3.27,3.27,0,0,1-1.1.18h-.92V43H14.7V35.32h2.2a3.09,3.09,0,0,1,1,.16,2.61,2.61,0,0,1,.86.47,2.44,2.44,0,0,1,.61.75,2.08,2.08,0,0,1,.23,1A2.71,2.71,0,0,1,19.37,38.74ZM27,40.54a4,4,0,0,1-.51,1.12,2.63,2.63,0,0,1-.7.71,3.5,3.5,0,0,1-.75.39,3.11,3.11,0,0,1-.66.17l-.45,0H21V35.32h2.3a4.37,4.37,0,0,1,1.7.31,3.52,3.52,0,0,1,1.21.81A3.34,3.34,0,0,1,27,37.6a3.83,3.83,0,0,1,.24,1.33A5.62,5.62,0,0,1,27,40.54Zm6.79-4.28H30.27v2.41h3.19v.85H30.27V43H29V35.32h4.78Z" fill="#231f20"/><path d="M25.34,37.11a2.33,2.33,0,0,0-.89-.61A3.82,3.82,0,0,0,23,36.27h-.73v5.79h1.23a2.06,2.06,0,0,0,1.83-.81,4.1,4.1,0,0,0,.56-2.34,4,4,0,0,0-.11-.94A2,2,0,0,0,25.34,37.11Z" fill="#231f20"/><path d="M23.8,9.37a1.82,1.82,0,0,0,.07,2.44C24.59,10.2,23.83,9.36,23.8,9.37Z" fill="#231f20"/></g></svg>