<svg xmlns="http://www.w3.org/2000/svg" viewBox="0 0 48 48"><title>text-font-glyph</title><g id="text-font"><path d="M42.38,2H5.63a.88.88,0,0,0-.87.88V10.8a.88.88,0,0,0,.54.81.87.87,0,0,0,1-.19L9.34,8.31a3.47,3.47,0,0,1,2.48-1H20.5a.88.88,0,0,1,.88.88V40.72h-7a.88.88,0,0,0-.87.88v3.52a.88.88,0,0,0,.88.88H33.63a.88.88,0,0,0,.88-.88V41.6a.88.88,0,0,0-.87-.88h-7V8.16a.88.88,0,0,1,.88-.88h8.69a3.47,3.47,0,0,1,2.48,1l3.09,3.11a.87.87,0,0,0,1,.19.88.88,0,0,0,.54-.81V2.88A.88.88,0,0,0,42.38,2Z" fill="#231f20"/></g></svg>