<svg id="Layer_1" data-name="Layer 1" xmlns="http://www.w3.org/2000/svg" viewBox="0 0 512 512"><defs><style>.cls-1{fill:#79d3d3;}.cls-2{fill:#fff;}.cls-3{fill:#d9e4e8;}.cls-4{fill:#141f38;}.cls-5{fill:#f4607f;}</style></defs><title>watch-filled</title><path class="cls-1" d="M326.4,44.8v56.06a178.89,178.89,0,0,0-179.2,0V44.8a32,32,0,0,1,32-32H294.4A32,32,0,0,1,326.4,44.8Zm-5.26,369.27q-2.18,1.17-4.39,2.27l-.87.43q-2.24,1.11-4.51,2.15l-.33.15q-2.53,1.16-5.11,2.24l-.36.15q-2.28,1-4.59,1.84l-1,.4q-2.17.82-4.37,1.59l-.72.25q-2.6.89-5.23,1.71l-.42.12q-2.33.71-4.69,1.36l-1.28.35q-2.09.56-4.2,1.07l-1.1.27q-2.64.62-5.32,1.17l-.47.09q-2.38.48-4.79.89l-1.5.25q-2,.33-4.06.62l-1.42.2c-1.79.24-3.59.45-5.39.64l-.39,0q-2.5.25-5,.42l-1.64.1q-2,.12-4,.2l-1.63.06c-1.83.06-3.66.09-5.5.09s-3.67,0-5.5-.09l-1.63-.06q-2-.08-4-.2l-1.64-.1q-2.52-.18-5-.42l-.39,0c-1.81-.18-3.6-.4-5.4-.64l-1.42-.2q-2-.29-4.06-.62l-1.49-.25q-2.41-.42-4.8-.89l-.46-.09q-2.68-.54-5.32-1.17l-1.1-.27q-2.11-.51-4.21-1.07l-1.28-.35q-2.36-.65-4.7-1.37l-.41-.12q-2.64-.81-5.24-1.71l-.71-.25q-2.21-.77-4.38-1.59l-1-.4q-2.31-.89-4.6-1.84l-.35-.14q-2.58-1.08-5.11-2.24l-.32-.15q-2.28-1-4.52-2.16l-.85-.42q-2.22-1.11-4.4-2.28l-.35-.18q-2.47-1.33-4.9-2.74V467.2a32,32,0,0,0,32,32H294.4a32,32,0,0,0,32-32V411.14q-2.43,1.41-4.9,2.74Z"/><rect class="cls-2" x="377.6" y="217.6" width="76.8" height="76.8" rx="19.2" ry="19.2"/><path class="cls-3" d="M236.8,435.2C138,435.2,57.6,354.81,57.6,256S138,76.8,236.8,76.8,416,157.19,416,256,335.61,435.2,236.8,435.2Z"/><path class="cls-4" d="M322.65,323.75a12.8,12.8,0,1,1-18.1,18.1l-51.2-51.19A38.4,38.4,0,1,1,224,219.79V166.4a12.8,12.8,0,1,1,25.6,0v53.39a38.42,38.42,0,0,1,21.86,52.76ZM467.2,236.8v38.4a32,32,0,0,1-32,32H421.89A192.37,192.37,0,0,1,339.2,418.43V467.2A44.8,44.8,0,0,1,294.4,512H179.2a44.8,44.8,0,0,1-44.8-44.8V418.43a192,192,0,0,1,0-324.86V44.8A44.8,44.8,0,0,1,179.2,0H294.4a44.8,44.8,0,0,1,44.8,44.8V93.57A192.37,192.37,0,0,1,421.89,204.8H435.2A32,32,0,0,1,467.2,236.8ZM160,80a192.41,192.41,0,0,1,153.6,0V44.8a19.22,19.22,0,0,0-19.2-19.2H179.2A19.22,19.22,0,0,0,160,44.8ZM313.6,432A192.41,192.41,0,0,1,160,432V467.2a19.22,19.22,0,0,0,19.2,19.2H294.4a19.22,19.22,0,0,0,19.2-19.2Zm89.6-176a166.4,166.4,0,1,0-48.74,117.66A165.31,165.31,0,0,0,403.2,256Zm38.4-19.2a6.41,6.41,0,0,0-6.4-6.4h-8.1a193.26,193.26,0,0,1,0,51.2h8.1a6.41,6.41,0,0,0,6.4-6.4Z"/><path class="cls-5" d="M249.6,256a12.8,12.8,0,1,0-12.8,12.8A12.81,12.81,0,0,0,249.6,256Z"/></svg>