<svg id="Layer_1" data-name="Layer 1" xmlns="http://www.w3.org/2000/svg" viewBox="0 0 512 512"><title>youtube2-flat</title><path d="M0,256C0,114.62,114.62,0,256,0S512,114.63,512,256,397.37,512,256,512,0,397.38,0,256Z" fill="#ff352e"/><path d="M238.38,154.4H226.85l-7.78,29.9L211,154.4H199c2.4,7.06,4.91,14.16,7.31,21.23,3.66,10.6,5.94,18.62,7,24.08v30.81h11.39V199.71Zm30.47,57.75V192.3c0-6.07-1-10.49-3.21-13.36q-4.26-5.82-12-5.8c-5.13,0-9.13,1.93-12,5.8-2.18,2.86-3.21,7.29-3.21,13.36v19.86c0,6,1,10.51,3.21,13.37a15.28,15.28,0,0,0,24,0C267.81,222.66,268.85,218.2,268.85,212.16Zm-10.29,2c0,5.23-1.58,7.86-4.9,7.86s-4.91-2.62-4.91-7.86V190.23c0-5.25,1.6-7.86,4.91-7.86s4.9,2.61,4.9,7.86Zm48.3,16.41V173.81H296.57v43.36c-2.27,3.22-4.44,4.8-6.5,4.8-1.38,0-2.19-.8-2.4-2.4a22.37,22.37,0,0,1-.13-4V173.81H277.29v44.86a29,29,0,0,0,.91,8.43c1,2.86,3.31,4.22,6.62,4.22,3.74,0,7.65-2.28,11.74-7v6.18Z" fill="#fff"/><path d="M274.63,287.7a7.33,7.33,0,0,0-5.08,2.47v34.22a7.32,7.32,0,0,0,5.08,2.5c2.92,0,4.42-2.5,4.42-7.57v-24C279.05,290.3,277.55,287.7,274.63,287.7Z" fill="#fff"/><path d="M312.37,287.7q-5.1,0-5.1,7.81v5.18h10.16v-5.18C317.44,290.3,315.73,287.7,312.37,287.7Z" fill="#fff"/><path d="M337.23,259.16A21.19,21.19,0,0,0,319,242.65c-20.87-2.35-42-2.35-63-2.35s-42.15,0-63,2.35a21.2,21.2,0,0,0-18.2,16.51c-2.93,12.76-3,26.66-3,39.79s0,27,2.93,39.78A21.31,21.31,0,0,0,193,355.29c20.87,2.31,42,2.31,63,2.31s42.16,0,63-2.31a21.34,21.34,0,0,0,18.2-16.55c2.93-12.75,2.94-26.66,2.94-39.78S340.16,271.92,337.23,259.16ZM219.86,270.63H207.67v64.72H196.36V270.63h-12V260h35.47Zm30.73,64.72H240.41v-6.12c-4,4.64-7.88,6.91-11.62,6.91-3.28,0-5.54-1.34-6.55-4.18a28.38,28.38,0,0,1-.9-8.35V279.22H231.5v41.33a28.84,28.84,0,0,0,.1,4c.25,1.57,1,2.38,2.38,2.38,2,0,4.17-1.57,6.43-4.77v-42.9h10.18Zm38.64-16.83c0,5.18-.35,8.92-1,11.3-1.35,4.17-4.07,6.31-8.13,6.31-3.62,0-7.1-2-10.51-6.22v5.44H259.39V260h10.17v24.62c3.29-4,6.77-6.08,10.51-6.08,4.06,0,6.78,2.12,8.13,6.32.68,2.26,1,6,1,11.29Zm38.39-9.37H307.27v9.94c0,5.2,1.7,7.79,5.2,7.79,2.49,0,4-1.36,4.54-4.08a63,63,0,0,0,.22-6.88h10.38v1.47c0,3.28-.13,5.54-.23,6.56a14.7,14.7,0,0,1-2.37,6.1c-2.81,4.08-7,6.08-12.31,6.08s-9.37-1.93-12.3-5.75c-2.16-2.81-3.27-7.25-3.27-13.18V297.54c0-6,1-10.41,3.14-13.24,2.93-3.84,7-5.74,12.19-5.74s9.14,1.9,12,5.74c2.12,2.84,3.16,7.24,3.16,13.24Z" fill="#fff"/></svg>